M48
; DRILL file KiCad 10.0.4 date 2026-08-27T06:49:14
; FORMAT={-:-/ absolute / metric / decimal}
; #@! TF.CreationDate,2026-08-27T06:49:14-04:00
; #@! TF.GenerationSoftware,Kicad,Pcbnew,10.0.4
; #@! TF.FileFunction,Plated,1,2,PTH
FMAT,2
METRIC
; #@! TA.AperFunction,Plated,PTH,ViaDrill
T1C0.300
; #@! TA.AperFunction,Plated,PTH,ComponentDrill
T2C1.000
%
G90
G05
T1
X-35.0Y-10.0
X-22.25Y14.55
X-22.25Y-41.0
X-20.95Y14.55
X-20.95Y-41.0
X-19.75Y14.55
X-19.75Y12.05
X-19.75Y-41.0
X-19.75Y-42.0
X-18.45Y14.55
X-18.45Y12.05
X-18.45Y-41.0
X-18.45Y-42.0
X0.0Y40.0
X30.0Y0.0
T2
X-17.78Y-14.18
X-17.78Y-39.82
X-15.24Y-14.18
X-15.24Y-39.82
X-12.7Y-14.18
X-12.7Y-39.82
X-10.16Y-14.18
X-10.16Y-39.82
X-7.62Y-14.18
X-7.62Y-39.82
X-6.35Y7.55
X-5.08Y-14.18
X-5.08Y-39.82
X-3.81Y7.55
X-2.54Y-14.18
X-2.54Y-39.82
X-1.27Y7.55
X0.0Y29.0
X0.0Y-14.18
X0.0Y-39.82
X1.27Y7.55
X2.54Y29.0
X2.54Y-14.18
X2.54Y-39.82
X3.81Y7.55
X5.08Y29.0
X5.08Y-14.18
X5.08Y-39.82
X6.35Y7.55
X7.62Y29.0
X7.62Y-14.18
X7.62Y-39.82
X10.16Y-14.18
X10.16Y-39.82
X12.7Y-14.18
X12.7Y-39.82
X15.24Y-14.18
X15.24Y-39.82
X17.78Y-14.18
X17.78Y-39.82
M30
