%TF.GenerationSoftware,KiCad,Pcbnew,10.0.4*%
%TF.CreationDate,2026-08-27T06:49:42-04:00*%
%TF.ProjectId,rev-a-carrier,7265762d-612d-4636-9172-726965722e6b,rev?*%
%TF.SameCoordinates,Original*%
%TF.FileFunction,Legend,Bot*%
%TF.FilePolarity,Positive*%
%FSLAX46Y46*%
G04 Gerber Fmt 4.6, Leading zero omitted, Abs format (unit mm)*
G04 Created by KiCad (PCBNEW 10.0.4) date 2026-08-27 06:49:42*
%MOMM*%
%LPD*%
G01*
G04 APERTURE LIST*
%ADD10C,0.150000*%
%ADD11C,0.120000*%
G04 APERTURE END LIST*
D10*
X333333Y-6254819D02*
X333333Y-6969104D01*
X333333Y-6969104D02*
X380952Y-7111961D01*
X380952Y-7111961D02*
X476190Y-7207200D01*
X476190Y-7207200D02*
X619047Y-7254819D01*
X619047Y-7254819D02*
X714285Y-7254819D01*
X-47619Y-6254819D02*
X-666666Y-6254819D01*
X-666666Y-6254819D02*
X-333333Y-6635771D01*
X-333333Y-6635771D02*
X-476190Y-6635771D01*
X-476190Y-6635771D02*
X-571428Y-6683390D01*
X-571428Y-6683390D02*
X-619047Y-6731009D01*
X-619047Y-6731009D02*
X-666666Y-6826247D01*
X-666666Y-6826247D02*
X-666666Y-7064342D01*
X-666666Y-7064342D02*
X-619047Y-7159580D01*
X-619047Y-7159580D02*
X-571428Y-7207200D01*
X-571428Y-7207200D02*
X-476190Y-7254819D01*
X-476190Y-7254819D02*
X-190476Y-7254819D01*
X-190476Y-7254819D02*
X-95238Y-7207200D01*
X-95238Y-7207200D02*
X-47619Y-7159580D01*
X4143333Y33045180D02*
X4143333Y32330895D01*
X4143333Y32330895D02*
X4190952Y32188038D01*
X4190952Y32188038D02*
X4286190Y32092800D01*
X4286190Y32092800D02*
X4429047Y32045180D01*
X4429047Y32045180D02*
X4524285Y32045180D01*
X3238571Y32711847D02*
X3238571Y32045180D01*
X3476666Y33092800D02*
X3714761Y32378514D01*
X3714761Y32378514D02*
X3095714Y32378514D01*
%TO.C,J3*%
D11*
X-7875000Y8755000D02*
X7875000Y8755000D01*
X7875000Y6345000D01*
X-7875000Y6345000D01*
X-7875000Y8755000D01*
%TO.C,J4*%
X-1525000Y30205000D02*
X9145000Y30205000D01*
X9145000Y27795000D01*
X-1525000Y27795000D01*
X-1525000Y30205000D01*
%TD*%
M02*
