%TF.GenerationSoftware,KiCad,Pcbnew,10.0.4*%
%TF.CreationDate,2026-08-27T06:49:42-04:00*%
%TF.ProjectId,rev-a-carrier,7265762d-612d-4636-9172-726965722e6b,rev?*%
%TF.SameCoordinates,Original*%
%TF.FileFunction,Profile,NP*%
%FSLAX46Y46*%
G04 Gerber Fmt 4.6, Leading zero omitted, Abs format (unit mm)*
G04 Created by KiCad (PCBNEW 10.0.4) date 2026-08-27 06:49:42*
%MOMM*%
%LPD*%
G01*
G04 APERTURE LIST*
%TA.AperFunction,Profile*%
%ADD10C,0.150000*%
%TD*%
G04 APERTURE END LIST*
D10*
X-51999900Y-74500D02*
X-51993300Y833000D01*
X-51993300Y833000D02*
X-51970900Y1740300D01*
X-51990700Y-982000D02*
X-51999900Y-74500D01*
X-51970900Y1740300D02*
X-51932600Y2647000D01*
X-51965700Y-1889300D02*
X-51990700Y-982000D01*
X-51932600Y2647000D02*
X-51878500Y3553000D01*
X-51924800Y-2795900D02*
X-51965700Y-1889300D01*
X-51878500Y3553000D02*
X-51808600Y4457800D01*
X-51868100Y-3701700D02*
X-51924800Y-2795900D01*
X-51808600Y4457800D02*
X-51722900Y5361300D01*
X-51795600Y-4606300D02*
X-51868100Y-3701700D01*
X-51722900Y5361300D02*
X-51621400Y6263200D01*
X-51707300Y-5509600D02*
X-51795600Y-4606300D01*
X-51621400Y6263200D02*
X-51504300Y7163200D01*
X-51603300Y-6411200D02*
X-51707300Y-5509600D01*
X-51504300Y7163200D02*
X-51371400Y8061000D01*
X-51483500Y-7310800D02*
X-51603300Y-6411200D01*
X-51371400Y8061000D02*
X-51222900Y8956300D01*
X-51348100Y-8208200D02*
X-51483500Y-7310800D01*
X-51222900Y8956300D02*
X-51058800Y9848900D01*
X-51197000Y-9103100D02*
X-51348100Y-8208200D01*
X-51058800Y9848900D02*
X-50879100Y10738500D01*
X-51030300Y-9995200D02*
X-51197000Y-9103100D01*
X-50879100Y10738500D02*
X-50684000Y11624800D01*
X-50848100Y-10884300D02*
X-51030300Y-9995200D01*
X-50684000Y11624800D02*
X-50473400Y12507600D01*
X-50650400Y-11770100D02*
X-50848100Y-10884300D01*
X-50473400Y12507600D02*
X-50247400Y13386600D01*
X-50437300Y-12652200D02*
X-50650400Y-11770100D01*
X-50247400Y13386600D02*
X-50006100Y14261500D01*
X-50208800Y-13530600D02*
X-50437300Y-12652200D01*
X-50006100Y14261500D02*
X-49749600Y15132000D01*
X-49965000Y-14404800D02*
X-50208800Y-13530600D01*
X-49749600Y15132000D02*
X-49477900Y15998000D01*
X-49706000Y-15274600D02*
X-49965000Y-14404800D01*
X-49477900Y15998000D02*
X-49191200Y16859100D01*
X-49431900Y-16139800D02*
X-49706000Y-15274600D01*
X-49191200Y16859100D02*
X-48889500Y17715000D01*
X-49142600Y-17000000D02*
X-49431900Y-16139800D01*
X-48889500Y17715000D02*
X-48572800Y18565500D01*
X-48572800Y18565500D02*
X-48241400Y19410400D01*
X-48241400Y19410400D02*
X-47895300Y20249400D01*
X-47895300Y20249400D02*
X-47534600Y21082200D01*
X-47534600Y21082200D02*
X-47159500Y21908600D01*
X-47159500Y21908600D02*
X-46769900Y22728300D01*
X-46769900Y22728300D02*
X-46366100Y23541100D01*
X-46366100Y23541100D02*
X-45948200Y24346700D01*
X-45948200Y24346700D02*
X-45516300Y25144900D01*
X-45516300Y25144900D02*
X-45070500Y25935400D01*
X-45070500Y25935400D02*
X-44611000Y26718100D01*
X-44611000Y26718100D02*
X-44138000Y27492600D01*
X-44138000Y27492600D02*
X-43651400Y28258700D01*
X-43651400Y28258700D02*
X-43151600Y29016200D01*
X-43151600Y29016200D02*
X-42638600Y29764900D01*
X-42638600Y29764900D02*
X-42112700Y30504500D01*
X-42112700Y30504500D02*
X-41573900Y31234800D01*
X-41573900Y31234800D02*
X-41022400Y31955600D01*
X-41022400Y31955600D02*
X-40458500Y32666700D01*
X-40458500Y32666700D02*
X-39882200Y33367800D01*
X-39882200Y33367800D02*
X-39293800Y34058800D01*
X-39293800Y34058800D02*
X-38693400Y34739400D01*
X-38693400Y34739400D02*
X-38081200Y35409400D01*
X-38081200Y35409400D02*
X-37457400Y36068600D01*
X-37457400Y36068600D02*
X-36822200Y36716800D01*
X-36822200Y36716800D02*
X-36175800Y37353900D01*
X-36537700Y-37000000D02*
X-25000000Y-37000000D01*
X-36356700Y-37177800D02*
X-36537700Y-37000000D01*
X-36175800Y37353900D02*
X-35518400Y37979500D01*
X-35702300Y-37806700D02*
X-36356700Y-37177800D01*
X-35518400Y37979500D02*
X-34850100Y38593600D01*
X-35037100Y-38424000D02*
X-35702300Y-37806700D01*
X-34850100Y38593600D02*
X-34171300Y39196000D01*
X-34361100Y-39029600D02*
X-35037100Y-38424000D01*
X-34171300Y39196000D02*
X-33482000Y39786400D01*
X-33674700Y-39623400D02*
X-34361100Y-39029600D01*
X-33482000Y39786400D02*
X-32782600Y40364600D01*
X-32978099Y-40205000D02*
X-33674700Y-39623400D01*
X-32782600Y40364600D02*
X-32073099Y40930600D01*
X-32271400Y-40774500D02*
X-32978099Y-40205000D01*
X-32073099Y40930600D02*
X-31353900Y41484100D01*
X-31554900Y-41331500D02*
X-32271400Y-40774500D01*
X-31353900Y41484100D02*
X-30625100Y42025000D01*
X-30828700Y-41875900D02*
X-31554900Y-41331500D01*
X-30625100Y42025000D02*
X-29887000Y42553100D01*
X-30093200Y-42407500D02*
X-30828700Y-41875900D01*
X-29887000Y42553100D02*
X-29139800Y43068200D01*
X-29348500Y-42926300D02*
X-30093200Y-42407500D01*
X-29139800Y43068200D02*
X-28383700Y43570200D01*
X-28594900Y-43431900D02*
X-29348500Y-42926300D01*
X-28383700Y43570200D02*
X-27619000Y44059000D01*
X-27832500Y-43924400D02*
X-28594900Y-43431900D01*
X-27619000Y44059000D02*
X-26845800Y44534300D01*
X-27061700Y-44403400D02*
X-27832500Y-43924400D01*
X-26845800Y44534300D02*
X-26064500Y44996000D01*
X-26282600Y-44869000D02*
X-27061700Y-44403400D01*
X-26064500Y44996000D02*
X-25275300Y45444000D01*
X-25495500Y-45320800D02*
X-26282600Y-44869000D01*
X-25275300Y45444000D02*
X-24478300Y45878200D01*
X-25000000Y-17000000D02*
X-49142600Y-17000000D01*
X-25000000Y-37000000D02*
X-25000000Y-17000000D01*
X-24700700Y-45758900D02*
X-25495500Y-45320800D01*
X-24478300Y45878200D02*
X-23673900Y46298500D01*
X-23898300Y-46183000D02*
X-24700700Y-45758900D01*
X-23673900Y46298500D02*
X-22862300Y46704600D01*
X-23088700Y-46593100D02*
X-23898300Y-46183000D01*
X-22862300Y46704600D02*
X-22043700Y47096500D01*
X-22272000Y-46988900D02*
X-23088700Y-46593100D01*
X-22043700Y47096500D02*
X-21218400Y47474000D01*
X-21448600Y-47370500D02*
X-22272000Y-46988900D01*
X-21218400Y47474000D02*
X-20386600Y47837100D01*
X-20618600Y-47737600D02*
X-21448600Y-47370500D01*
X-20386600Y47837100D02*
X-19548600Y48185600D01*
X-19782300Y-48090100D02*
X-20618600Y-47737600D01*
X-19548600Y48185600D02*
X-18704700Y48519400D01*
X-18940000Y-48428100D02*
X-19782300Y-48090100D01*
X-18704700Y48519400D02*
X-17855100Y48838500D01*
X-18091900Y-48751200D02*
X-18940000Y-48428100D01*
X-17855100Y48838500D02*
X-17000000Y49142600D01*
X-17238300Y-49059600D02*
X-18091900Y-48751200D01*
X-17000000Y49142600D02*
X-16139800Y49431900D01*
X-16379500Y-49352900D02*
X-17238300Y-49059600D01*
X-16139800Y49431900D02*
X-15274600Y49706000D01*
X-15515700Y-49631300D02*
X-16379500Y-49352900D01*
X-15274600Y49706000D02*
X-14404800Y49965000D01*
X-14647100Y-49894500D02*
X-15515700Y-49631300D01*
X-14404800Y49965000D02*
X-13530600Y50208800D01*
X-13774100Y-50142500D02*
X-14647100Y-49894500D01*
X-13530600Y50208800D02*
X-12652200Y50437300D01*
X-12896900Y-50375300D02*
X-13774100Y-50142500D01*
X-12652200Y50437300D02*
X-11770100Y50650400D01*
X-12015800Y-50592700D02*
X-12896900Y-50375300D01*
X-11770100Y50650400D02*
X-10884300Y50848100D01*
X-11131000Y-50794700D02*
X-12015800Y-50592700D01*
X-10884300Y50848100D02*
X-9995200Y51030300D01*
X-10242800Y-50981200D02*
X-11131000Y-50794700D01*
X-9995200Y51030300D02*
X-9103100Y51197000D01*
X-9351500Y-51152200D02*
X-10242800Y-50981200D01*
X-9103100Y51197000D02*
X-8208200Y51348100D01*
X-8457300Y-51307600D02*
X-9351500Y-51152200D01*
X-8208200Y51348100D02*
X-7310800Y51483500D01*
X-7560600Y-51447400D02*
X-8457300Y-51307600D01*
X-7310800Y51483500D02*
X-6411200Y51603300D01*
X-6661600Y-51571500D02*
X-7560600Y-51447400D01*
X-6411200Y51603300D02*
X-5509600Y51707300D01*
X-5760500Y-51679900D02*
X-6661600Y-51571500D01*
X-5509600Y51707300D02*
X-4606300Y51795600D01*
X-4857700Y-51772600D02*
X-5760500Y-51679900D01*
X-4606300Y51795600D02*
X-3701700Y51868100D01*
X-3953400Y-51849500D02*
X-4857700Y-51772600D01*
X-3701700Y51868100D02*
X-2795900Y51924800D01*
X-3047900Y-51910600D02*
X-3953400Y-51849500D01*
X-2795900Y51924800D02*
X-1889300Y51965700D01*
X-2141500Y-51955900D02*
X-3047900Y-51910600D01*
X-1889300Y51965700D02*
X-982000Y51990700D01*
X-1234400Y-51985300D02*
X-2141500Y-51955900D01*
X-982000Y51990700D02*
X-74500Y51999900D01*
X-326900Y-51999000D02*
X-1234400Y-51985300D01*
X-74500Y51999900D02*
X833000Y51993300D01*
X580600Y-51996800D02*
X-326900Y-51999000D01*
X833000Y51993300D02*
X1740300Y51970900D01*
X1488000Y-51978700D02*
X580600Y-51996800D01*
X1740300Y51970900D02*
X2647000Y51932600D01*
X2394900Y-51944800D02*
X1488000Y-51978700D01*
X2647000Y51932600D02*
X3553000Y51878500D01*
X3301100Y-51895100D02*
X2394900Y-51944800D01*
X3553000Y51878500D02*
X4457800Y51808600D01*
X4206300Y-51829600D02*
X3301100Y-51895100D01*
X4457800Y51808600D02*
X5361300Y51722900D01*
X5110200Y-51748300D02*
X4206300Y-51829600D01*
X5361300Y51722900D02*
X6263200Y51621400D01*
X6012600Y-51651200D02*
X5110200Y-51748300D01*
X6263200Y51621400D02*
X7163200Y51504300D01*
X6913100Y-51538400D02*
X6012600Y-51651200D01*
X7163200Y51504300D02*
X8061000Y51371400D01*
X7811500Y-51409900D02*
X6913100Y-51538400D01*
X8061000Y51371400D02*
X8956300Y51222900D01*
X8707600Y-51265800D02*
X7811500Y-51409900D01*
X8956300Y51222900D02*
X9848900Y51058800D01*
X9600900Y-51106000D02*
X8707600Y-51265800D01*
X9848900Y51058800D02*
X10738500Y50879100D01*
X10491400Y-50930600D02*
X9600900Y-51106000D01*
X10738500Y50879100D02*
X11624800Y50684000D01*
X11378700Y-50739800D02*
X10491400Y-50930600D01*
X11624800Y50684000D02*
X12507600Y50473400D01*
X12262500Y-50533500D02*
X11378700Y-50739800D01*
X12507600Y50473400D02*
X13386600Y50247400D01*
X13142500Y-50311800D02*
X12262500Y-50533500D01*
X13386600Y50247400D02*
X14261500Y50006100D01*
X14018600Y-50074700D02*
X13142500Y-50311800D01*
X14261500Y50006100D02*
X15132000Y49749600D01*
X14890400Y-49822400D02*
X14018600Y-50074700D01*
X15132000Y49749600D02*
X15998000Y49477900D01*
X15757600Y-49555000D02*
X14890400Y-49822400D01*
X15998000Y49477900D02*
X16859100Y49191200D01*
X16620100Y-49272400D02*
X15757600Y-49555000D01*
X16859100Y49191200D02*
X17715000Y48889500D01*
X17477500Y-48974900D02*
X16620100Y-49272400D01*
X17715000Y48889500D02*
X18565500Y48572800D01*
X18329600Y-48662400D02*
X17477500Y-48974900D01*
X18565500Y48572800D02*
X19410400Y48241400D01*
X19176000Y-48335100D02*
X18329600Y-48662400D01*
X19410400Y48241400D02*
X20249400Y47895300D01*
X20016700Y-47993000D02*
X19176000Y-48335100D01*
X20249400Y47895300D02*
X21082200Y47534600D01*
X20851200Y-47636400D02*
X20016700Y-47993000D01*
X21000000Y-17000000D02*
X21000000Y-37000000D01*
X21000000Y-37000000D02*
X36537700Y-37000000D01*
X21082200Y47534600D02*
X21908600Y47159500D01*
X21679400Y-47265200D02*
X20851200Y-47636400D01*
X21908600Y47159500D02*
X22728300Y46769900D01*
X22501000Y-46879700D02*
X21679400Y-47265200D01*
X22728300Y46769900D02*
X23541100Y46366100D01*
X23315700Y-46479800D02*
X22501000Y-46879700D01*
X23541100Y46366100D02*
X24346700Y45948200D01*
X24123400Y-46065900D02*
X23315700Y-46479800D01*
X24346700Y45948200D02*
X25144900Y45516300D01*
X24923700Y-45637800D02*
X24123400Y-46065900D01*
X25144900Y45516300D02*
X25935400Y45070500D01*
X25716400Y-45195900D02*
X24923700Y-45637800D01*
X25935400Y45070500D02*
X26718100Y44611000D01*
X26501200Y-44740200D02*
X25716400Y-45195900D01*
X26718100Y44611000D02*
X27492600Y44138000D01*
X27278000Y-44270900D02*
X26501200Y-44740200D01*
X27492600Y44138000D02*
X28258700Y43651400D01*
X28046500Y-43788100D02*
X27278000Y-44270900D01*
X28258700Y43651400D02*
X29016200Y43151600D01*
X28806400Y-43291900D02*
X28046500Y-43788100D01*
X29016200Y43151600D02*
X29764900Y42638600D01*
X29557600Y-42782600D02*
X28806400Y-43291900D01*
X29764900Y42638600D02*
X30504500Y42112700D01*
X30299700Y-42260200D02*
X29557600Y-42782600D01*
X30504500Y42112700D02*
X31234800Y41573900D01*
X31032700Y-41725000D02*
X30299700Y-42260200D01*
X31234800Y41573900D02*
X31955600Y41022400D01*
X31756100Y-41177000D02*
X31032700Y-41725000D01*
X31955600Y41022400D02*
X32666700Y40458500D01*
X32469900Y-40616500D02*
X31756100Y-41177000D01*
X32666700Y40458500D02*
X33367800Y39882200D01*
X33173900Y-40043700D02*
X32469900Y-40616500D01*
X33367800Y39882200D02*
X34058800Y39293800D01*
X33867700Y-39458600D02*
X33173900Y-40043700D01*
X34058800Y39293800D02*
X34739400Y38693400D01*
X34551100Y-38861500D02*
X33867700Y-39458600D01*
X34739400Y38693400D02*
X35409400Y38081200D01*
X35224100Y-38252600D02*
X34551100Y-38861500D01*
X35409400Y38081200D02*
X36068600Y37457400D01*
X35886300Y-37632000D02*
X35224100Y-38252600D01*
X36068600Y37457400D02*
X36716800Y36822200D01*
X36537700Y-37000000D02*
X35886300Y-37632000D01*
X36716800Y36822200D02*
X37353900Y36175800D01*
X37353900Y36175800D02*
X37979500Y35518400D01*
X37979500Y35518400D02*
X38593600Y34850100D01*
X38593600Y34850100D02*
X39196000Y34171300D01*
X39196000Y34171300D02*
X39786400Y33482000D01*
X39786400Y33482000D02*
X40364600Y32782600D01*
X40364600Y32782600D02*
X40930600Y32073099D01*
X40930600Y32073099D02*
X41484100Y31353900D01*
X41484100Y31353900D02*
X42025000Y30625100D01*
X42025000Y30625100D02*
X42553100Y29887000D01*
X42553100Y29887000D02*
X43068200Y29139800D01*
X43068200Y29139800D02*
X43570200Y28383700D01*
X43570200Y28383700D02*
X44059000Y27619000D01*
X44059000Y27619000D02*
X44534300Y26845800D01*
X44534300Y26845800D02*
X44996000Y26064500D01*
X44996000Y26064500D02*
X45444000Y25275300D01*
X45444000Y25275300D02*
X45878200Y24478300D01*
X45878200Y24478300D02*
X46298500Y23673900D01*
X46298500Y23673900D02*
X46704600Y22862300D01*
X46704600Y22862300D02*
X47096500Y22043700D01*
X47096500Y22043700D02*
X47474000Y21218400D01*
X47474000Y21218400D02*
X47837100Y20386600D01*
X47837100Y20386600D02*
X48185600Y19548600D01*
X48185600Y19548600D02*
X48519400Y18704700D01*
X48519400Y18704700D02*
X48838500Y17855100D01*
X48838500Y17855100D02*
X49142600Y17000000D01*
X49142600Y17000000D02*
X49431900Y16139800D01*
X49142600Y-17000000D02*
X21000000Y-17000000D01*
X49167000Y-16929500D02*
X49142600Y-17000000D01*
X49431900Y16139800D02*
X49706000Y15274600D01*
X49454900Y-16068900D02*
X49167000Y-16929500D01*
X49706000Y15274600D02*
X49965000Y14404800D01*
X49727800Y-15203300D02*
X49454900Y-16068900D01*
X49965000Y14404800D02*
X50208800Y13530600D01*
X49985600Y-14333100D02*
X49727800Y-15203300D01*
X50208800Y13530600D02*
X50437300Y12652200D01*
X50228100Y-13458600D02*
X49985600Y-14333100D01*
X50437300Y12652200D02*
X50650400Y11770100D01*
X50455400Y-12579900D02*
X50228100Y-13458600D01*
X50650400Y11770100D02*
X50848100Y10884300D01*
X50667200Y-11697500D02*
X50455400Y-12579900D01*
X50848100Y10884300D02*
X51030300Y9995200D01*
X50863700Y-10811400D02*
X50667200Y-11697500D01*
X51030300Y9995200D02*
X51197000Y9103100D01*
X51044600Y-9922100D02*
X50863700Y-10811400D01*
X51197000Y9103100D02*
X51348100Y8208200D01*
X51210000Y-9029700D02*
X51044600Y-9922100D01*
X51348100Y8208200D02*
X51483500Y7310800D01*
X51359800Y-8134600D02*
X51210000Y-9029700D01*
X51483500Y7310800D02*
X51603300Y6411200D01*
X51493900Y-7237000D02*
X51359800Y-8134600D01*
X51603300Y6411200D02*
X51707300Y5509600D01*
X51612400Y-6337200D02*
X51493900Y-7237000D01*
X51707300Y5509600D02*
X51795600Y4606300D01*
X51715100Y-5435500D02*
X51612400Y-6337200D01*
X51795600Y4606300D02*
X51868100Y3701700D01*
X51802100Y-4532100D02*
X51715100Y-5435500D01*
X51868100Y3701700D02*
X51924800Y2795900D01*
X51873300Y-3627300D02*
X51802100Y-4532100D01*
X51924800Y2795900D02*
X51965700Y1889300D01*
X51928700Y-2721500D02*
X51873300Y-3627300D01*
X51965700Y1889300D02*
X51990700Y982000D01*
X51968300Y-1814800D02*
X51928700Y-2721500D01*
X51990700Y982000D02*
X51999900Y74500D01*
X51992100Y-907500D02*
X51968300Y-1814800D01*
X51999900Y74500D02*
X52000000Y0D01*
X52000000Y0D02*
X51992100Y-907500D01*
M02*
